<svg width="96" height="96" viewBox="0 0 96 96" fill="none" xmlns="http://www.w3.org/2000/svg">
<g clip-path="url(#clip0_2103_1591)">
<path d="M83.3552 29.6152C93.5088 39.7689 93.5088 56.2311 83.3552 66.3848L66.3847 83.3553C56.231 93.509 39.7687 93.509 29.6151 83.3553L12.6445 66.3848C2.49091 56.2311 2.49091 39.7689 12.6445 29.6152L29.6151 12.6447C39.7687 2.49103 56.231 2.49103 66.3847 12.6447L83.3552 29.6152ZM36.6862 36.6863C30.4378 42.9347 30.4378 53.0653 36.6862 59.3137C42.9346 65.5621 53.0652 65.5621 59.3136 59.3137C65.562 53.0653 65.562 42.9347 59.3136 36.6863C53.0652 30.4379 42.9346 30.4379 36.6862 36.6863Z" fill="black"/>
</g>
<defs>
<clipPath id="clip0_2103_1591">
<rect width="96" height="96" fill="white"/>
</clipPath>
</defs>
</svg>
