<svg width="96" height="96" viewBox="0 0 96 96" fill="none" xmlns="http://www.w3.org/2000/svg">
<path d="M48 2C55.1797 2 61 7.8203 61 15V16.6152L62.1426 15.4727C67.2194 10.3963 75.4507 10.396 80.5273 15.4727C85.604 20.5493 85.6037 28.7806 80.5273 33.8574L79.3848 35H81C88.1797 35 94 40.8203 94 48C94 55.1797 88.1797 61 81 61H79.3848L80.5273 62.1426C85.6037 67.2194 85.604 75.4507 80.5273 80.5273C75.4507 85.604 67.2194 85.6037 62.1426 80.5273L61 79.3848V81C61 88.1797 55.1797 94 48 94C40.8203 94 35 88.1797 35 81V79.3848L33.8574 80.5273C28.7806 85.6037 20.5493 85.604 15.4727 80.5273C10.396 75.4507 10.3963 67.2194 15.4727 62.1426L16.6152 61H15C7.8203 61 2 55.1797 2 48C2 40.8203 7.8203 35 15 35H16.6152L15.4727 33.8574C10.3963 28.7806 10.396 20.5493 15.4727 15.4727C20.5493 10.396 28.7806 10.3963 33.8574 15.4727L35 16.6152V15C35 7.8203 40.8203 2 48 2ZM48 36C41.3726 36 36 41.3726 36 48C36 54.6274 41.3726 60 48 60C54.6274 60 60 54.6274 60 48C60 41.3726 54.6274 36 48 36Z" fill="black"/>
</svg>
